<svg width="12" height="12" viewBox="0 0 12 12" fill="none" xmlns="http://www.w3.org/2000/svg">
<g clip-path="url(#clip0_1_231)">
<path d="M8.78 10.5C8.70004 10.5003 8.62117 10.4815 8.55 10.445L6 9.11L3.45 10.445C3.3672 10.4885 3.27384 10.508 3.18054 10.5011C3.08724 10.4942 2.99774 10.4613 2.92222 10.4061C2.84669 10.3509 2.78817 10.2756 2.75331 10.1888C2.71845 10.102 2.70864 10.0071 2.725 9.915L3.225 7.1L1.165 5.1C1.10073 5.03586 1.05514 4.95543 1.03312 4.86735C1.0111 4.77926 1.01348 4.68684 1.04 4.6C1.06898 4.51114 1.12229 4.43218 1.19388 4.37208C1.26547 4.31198 1.35246 4.27315 1.445 4.26L4.295 3.845L5.55 1.28C5.59095 1.19546 5.65487 1.12417 5.73446 1.07429C5.81405 1.0244 5.90608 0.997945 6 0.997945C6.09393 0.997945 6.18596 1.0244 6.26555 1.07429C6.34513 1.12417 6.40906 1.19546 6.45 1.28L7.72 3.84L10.57 4.255C10.6625 4.26815 10.7495 4.30698 10.8211 4.36708C10.8927 4.42718 10.946 4.50614 10.975 4.595C11.0015 4.68184 11.0039 4.77426 10.9819 4.86235C10.9599 4.95043 10.9143 5.03086 10.85 5.095L8.79 7.095L9.29 9.91C9.30785 10.0037 9.29851 10.1006 9.26307 10.1892C9.22763 10.2778 9.16758 10.3544 9.09 10.41C8.99946 10.4734 8.89044 10.5051 8.78 10.5Z" fill="#FED718"/>
</g>
<defs>
<clipPath id="clip0_1_231">
<rect width="12" height="12" fill="white"/>
</clipPath>
</defs>
</svg>
